#!OML:ASF X:\für Bonn\!DataBase\2005_08_12_Daniel\c3d\Daniel.ASF
:FULLY-SPECIFIED
:DEGREES
107
root 9.12273 16.1422 9.64768 713.998 -131.742 -3.51486
lowerback 42.0352 4.28496 -5.9394
upperback 11.0033 -0.684022 -4.76548
thorax -7.72352 -1.43151 -1.61271
lowerneck -4.54244 0.574935 -7.10523
upperneck 3.77858 1.12935 1.71643
head 1.93828 0.492576 1.81455
rclavicle -1.11319e-014 2.54444e-014
rhumerus -39.3905 -0.0743198 -85.1604
rradius 87.3919
rwrist 9.15924
rhand -35.81 9.77559
rfingers 7.12502
rthumb -8.9265 -20.0156
lclavicle -1.11319e-014 2.54444e-014
lhumerus 153.888 164.629 260.543
lradius 86.0939
lwrist -26.5263
lhand -28.3896 3.48084
lfingers 7.12502
lthumb -1.7622 33.4533
rfemur -19.2865 -2.32593 17.0262
rtibia 76.2901
rfoot -18.7344 8.33895
rtoes -11.8496
lfemur -24.0051 2.46953 -25.7963
ltibia 63.5995
lfoot -29.2803 -7.78951
ltoes -4.13372
108
root 9.03997 16.1457 9.58788 713.778 -131.885 -3.50685
lowerback 42.0984 4.173 -5.93648
upperback 11.086 -0.84581 -4.73316
thorax -7.64964 -1.52175 -1.51326
lowerneck -4.56418 0.645853 -7.0129
upperneck 3.95025 1.21931 1.75588
head 1.99411 0.536423 1.81591
rclavicle -6.44062e-014 -3.02153e-014
rhumerus -39.5362 0.0881743 -85.3853
rradius 87.8665
rwrist 9.01164
rhand -35.733 9.82492
rfingers 7.12502
rthumb -8.85219 -19.9694
lclavicle -6.44062e-014 -3.02153e-014
lhumerus 154.191 165.023 260.708
lradius 86.3311
lwrist -26.5548
lhand -28.5834 3.3309
lfingers 7.12502
lthumb -1.94938 33.3017
rfemur -20.3746 -2.00633 17.0981
rtibia 75.9492
rfoot -19.1373 8.44905
rtoes -12.1771
lfemur -23.2582 2.61543 -25.8007
ltibia 63.4903
lfoot -29.711 -7.71366
ltoes -4.16143
109
root 8.95791 16.1483 9.52694 713.498 -132.066 -3.39722
lowerback 42.1317 4.04485 -5.87191
upperback 11.1546 -0.993716 -4.70018
thorax -7.5846 -1.60264 -1.44984
lowerneck -4.5584 0.702501 -6.91106
upperneck 4.13061 1.28738 1.78569
head 2.04898 0.568973 1.81161
rclavicle -1.51076e-014 -3.02153e-014
rhumerus -39.7081 0.298287 -85.6142
rradius 88.2913
rwrist 8.98279
rhand -35.7746 9.8994
rfingers 7.12502
rthumb -8.89229 -19.8932
lclavicle -1.51076e-014 -3.02153e-014
lhumerus 154.399 165.469 260.785
lradius 86.5844
lwrist -26.4227
lhand -28.7518 3.07896
lfingers 7.12502
lthumb -2.11196 33.0483
rfemur -21.4481 -1.67454 17.2573
rtibia 75.5281
rfoot -19.537 8.47703
rtoes -12.6017
lfemur -22.5358 2.77784 -25.7086
ltibia 63.3928
lfoot -30.1118 -7.67079
ltoes -4.08734
110
root 8.87524 16.1499 9.46354 713.296 -132.22 -3.40524
lowerback 42.1844 3.9387 -5.87367
upperback 11.1999 -1.14534 -4.68424
thorax -7.54949 -1.68349 -1.36964
lowerneck -4.53716 0.755739 -6.77593
upperneck 4.32367 1.34808 1.79534
head 2.10568 0.597566 1.7945
rclavicle -8.11041e-014 1.59028e-015
rhumerus -39.9339 0.512384 -85.8404
rradius 88.7424
rwrist 8.89081
rhand -35.6891 10.004
rfingers 7.12502
rthumb -8.80979 -19.7921
lclavicle -8.11041e-014 1.59028e-015
lhumerus 154.627 165.949 260.833
lradius 86.7564
lwrist -26.3922
lhand -28.9232 2.88335
lfingers 7.12502
lthumb -2.27753 32.8509
rfemur -22.4757 -1.35369 17.3324
rtibia 75.032
rfoot -19.8272 8.46847
rtoes -12.7521
lfemur -21.7807 2.9298 -25.69
ltibia 63.276
lfoot -30.5306 -7.62519
ltoes -4.09176
111
root 8.79128 16.1504 9.40105 713.035 -132.384 -3.31474
lowerback 42.1663 3.80497 -5.768
upperback 11.2896 -1.2778 -4.65873
thorax -7.44731 -1.75804 -1.34188
lowerneck -4.50555 0.784626 -6.76114
upperneck 4.47058 1.37759 1.91966
head 2.14695 0.612867 1.83525
rclavicle -2.06736e-014 -9.06458e-014
rhumerus -40.06 0.678195 -86.0411
rradius 89.1475
rwrist 8.82964
rhand -35.7084 10.0353
rfingers 7.12502
rthumb -8.82843 -19.76
lclavicle -2.06736e-014 -9.06458e-014
lhumerus 154.873 166.448 260.896
lradius 86.9605
lwrist -26.2668
lhand -29.0891 2.69605
lfingers 7.12502
lthumb -2.4378 32.6619
rfemur -23.466 -1.03069 17.4753
rtibia 74.4512
rfoot -20.112 8.49264
rtoes -12.9716
lfemur -21.0448 3.06136 -25.6259
ltibia 63.164
lfoot -30.9568 -7.52697
ltoes -4.10768
112
root 8.70654 16.1502 9.33855 712.804 -132.543 -3.25474
lowerback 42.1767 3.65566 -5.68606
upperback 11.3361 -1.43725 -4.63652
thorax -7.40124 -1.84039 -1.29432
lowerneck -4.46668 0.845383 -6.70098
upperneck 4.63838 1.4495 1.95873
head 2.19176 0.647014 1.84114
rclavicle 7.95139e-015 -3.33958e-014
rhumerus -40.2321 0.928702 -86.2165
rradius 89.5189
rwrist 8.79637
rhand -35.6978 10.0625
rfingers 7.12502
rthumb -8.81822 -19.7333
lclavicle 7.95139e-015 -3.33958e-014
lhumerus 155.025 166.885 260.918
lradius 87.2137
lwrist -26.1308
lhand -29.1879 2.52855
lfingers 7.12502
lthumb -2.53318 32.4933
rfemur -24.4602 -0.736608 17.5655
rtibia 73.8023
rfoot -20.201 8.56632
rtoes -12.9407
lfemur -20.2954 3.16275 -25.5903
ltibia 63.0302
lfoot -31.3599 -7.42396
ltoes -4.14373
113
root 8.62238 16.152 9.27615 712.578 -132.718 -3.1753
lowerback 42.1241 3.5147 -5.58355
upperback 11.4219 -1.57559 -4.61995
thorax -7.294 -1.91662 -1.27278
lowerneck -4.49956 0.889448 -6.63631
upperneck 4.8267 1.50215 2.03775
head 2.25754 0.672875 1.86033
rclavicle -1.90833e-014 1.74931e-014
rhumerus -40.344 1.13348 -86.4173
rradius 89.8803
rwrist 8.6683
rhand -35.6036 10.1285
rfingers 7.12502
rthumb -8.72732 -19.671
lclavicle -1.90833e-014 1.74931e-014
lhumerus 155.262 167.312 260.962
lradius 87.4204
lwrist -26.0696
lhand -29.1666 2.33894
lfingers 7.12502
lthumb -2.51256 32.3039
rfemur -25.4302 -0.369011 17.658
rtibia 73.0589
rfoot -20.2093 8.62876
rtoes -12.6007
lfemur -19.5645 3.2711 -25.5292
ltibia 62.8878
lfoot -31.7225 -7.34486
ltoes -3.98914
114
root 8.53889 16.1533 9.213 712.342 -132.878 -3.10768
lowerback 42.121 3.37758 -5.49032
upperback 11.4795 -1.71388 -4.58719
thorax -7.23164 -1.99043 -1.2291
lowerneck -4.43234 0.93455 -6.6049
upperneck 4.96086 1.55094 2.10372
head 2.28723 0.696387 1.87882
rclavicle -6.52014e-014 -8.90555e-014
rhumerus -40.4772 1.34096 -86.595
rradius 90.2476
rwrist 8.55309
rhand -35.584 10.1349
rfingers 7.12502
rthumb -8.70838 -19.6655
lclavicle -6.52014e-014 -8.90555e-014
lhumerus 155.478 167.793 260.989
lradius 87.6128
lwrist -25.863
lhand -29.2256 2.1601
lfingers 7.12502
lthumb -2.56955 32.1244
rfemur -26.3436 -0.095295 17.7253
rtibia 72.2257
rfoot -20.1774 8.70224
rtoes -12.688
lfemur -18.814 3.35861 -25.4856
ltibia 62.7227
lfoot -32.1289 -7.20557
ltoes -4.05876
115
root 8.45422 16.1556 9.15052 712.11 -133.059 -3.00665
lowerback 42.113 3.21813 -5.37661
upperback 11.501 -1.86278 -4.55049
thorax -7.20889 -2.06402 -1.18676
lowerneck -4.42539 0.977302 -6.63414
upperneck 5.15792 1.60319 2.18952
head 2.34874 0.719782 1.91687
rclavicle -2.22639e-014 -1.59028e-014
rhumerus -40.655 1.56826 -86.779
rradius 90.5651
rwrist 8.45727
rhand -35.6052 10.1189
rfingers 7.12502
rthumb -8.72883 -19.6806
lclavicle -2.22639e-014 -1.59028e-014
lhumerus 155.617 168.186 261.01
lradius 87.8188
lwrist -25.7253
lhand -29.0858 2.07334
lfingers 7.12502
lthumb -2.43462 32.0392
rfemur -27.2155 0.151269 17.8264
rtibia 71.3118
rfoot -20.1876 8.65941
rtoes -13.1978
lfemur -18.0679 3.4132 -25.4293
ltibia 62.5378
lfoot -32.5191 -7.06803
ltoes -4.04817
116
root 8.36939 16.1573 9.0879 711.894 -133.232 -2.9456
lowerback 42.0879 3.0709 -5.26357
upperback 11.5409 -1.99783 -4.51404
thorax -7.16073 -2.13332 -1.15068
lowerneck -4.37163 1.02082 -6.68937
upperneck 5.336 1.65271 2.30213
head 2.39544 0.742174 1.96753
rclavicle 3.49861e-014 -3.65764e-014
rhumerus -40.8129 1.72038 -86.9313
rradius 90.9217
rwrist 8.38482
rhand -35.5248 10.0673
rfingers 7.12502
rthumb -8.65125 -19.7355
lclavicle 3.49861e-014 -3.65764e-014
lhumerus 155.782 168.584 261.063
lradius 88.0505
lwrist -25.5799
lhand -28.989 1.99464
lfingers 7.12502
lthumb -2.34108 31.9615
rfemur -28.0313 0.360169 17.8973
rtibia 70.325
rfoot -20.1296 8.56078
rtoes -13.7012
lfemur -17.3066 3.52061 -25.3962
ltibia 62.3451
lfoot -32.9223 -6.93129
ltoes -4.08603
117
root 8.28526 16.159 9.02396 711.684 -133.424 -2.88466
lowerback 42.0742 2.94759 -5.2094
upperback 11.5498 -2.12094 -4.44473
thorax -7.14608 -2.19521 -1.05411
lowerneck -4.21089 1.06645 -6.75362
upperneck 5.40441 1.69923 2.38791
head 2.38594 0.763735 2.0074
rclavicle -1.90833e-014 -1.59028e-015
rhumerus -41.0017 1.94339 -87.0615
rradius 91.2715
rwrist 8.24744
rhand -35.5209 9.93724
rfingers 7.12502
rthumb -8.64747 -19.8656
lclavicle -1.90833e-014 -1.59028e-015
lhumerus 155.885 168.968 261.091
lradius 88.2706
lwrist -25.4851
lhand -28.8077 2.047
lfingers 7.12502
lthumb -2.16603 32.0158
rfemur -28.8012 0.569453 17.9729
rtibia 69.2582
rfoot -20.0311 8.44502
rtoes -13.8944
lfemur -16.5425 3.56522 -25.3763
ltibia 62.1464
lfoot -33.2982 -6.74173
ltoes -4.07123
118
root 8.20024 16.1591 8.96089 711.444 -133.579 -2.74736
lowerback 42.0602 2.76764 -5.04303
upperback 11.5352 -2.26133 -4.39408
thorax -7.16333 -2.25856 -1.02679
lowerneck -4.04476 1.10516 -6.798
upperneck 5.52735 1.73326 2.48157
head 2.39418 0.778269 2.04669
rclavicle -3.18055e-015 4.77083e-015
rhumerus -41.1989 2.05368 -87.2139
rradius 91.5831
rwrist 8.15683
rhand -35.4905 9.89689
rfingers 7.12502
rthumb -8.61813 -19.9072
lclavicle -3.18055e-015 4.77083e-015
lhumerus 155.953 169.364 261.116
lradius 88.4931
lwrist -25.4612
lhand -28.72 2.10637
lfingers 7.12502
lthumb -2.08134 32.076
rfemur -29.5768 0.714473 18.0967
rtibia 68.1405
rfoot -19.83 8.30952
rtoes -14.0536
lfemur -15.8277 3.56771 -25.3093
ltibia 61.9546
lfoot -33.6777 -6.58916
ltoes -3.88766
119
root 8.1142 16.1586 8.8962 711.179 -133.78 -2.64805
lowerback 42.0294 2.63472 -4.91909
upperback 11.5941 -2.37534 -4.33358
thorax -7.09139 -2.3214 -0.980238
lowerneck -4.02596 1.13096 -6.8342
upperneck 5.64936 1.7625 2.55254
head 2.42967 0.790988 2.07938
rclavicle 5.40694e-014 5.56597e-014
rhumerus -41.3087 2.16446 -87.3578
rradius 91.9348
rwrist 8.14483
rhand -35.53 9.78542
rfingers 7.12502
rthumb -8.65626 -20.0171
lclavicle 5.40694e-014 5.56597e-014
lhumerus 156.147 169.74 261.144
lradius 88.7123
lwrist -25.445
lhand -28.5759 2.27399
lfingers 7.12502
lthumb -1.94209 32.2449
rfemur -30.2093 0.898769 18.2067
rtibia 66.9412
rfoot -19.6009 8.18085
rtoes -14.1393
lfemur -15.0203 3.57591 -25.2744
ltibia 61.7562
lfoot -34.0474 -6.4053
ltoes -3.70435
120
root 8.0271 16.1567 8.83277 710.998 -133.966 -2.58768
lowerback 41.9116 2.47661 -4.83183
upperback 11.6534 -2.52183 -4.27265
thorax -6.99193 -2.39821 -0.903002
lowerneck -3.88313 1.18588 -6.91551
upperneck 5.63455 1.82369 2.64819
head 2.39472 0.821634 2.12503
rclavicle -1.27222e-014 -9.06458e-014
rhumerus -41.42 2.33635 -87.5363
rradius 92.3358
rwrist 8.0955
rhand -35.5061 9.64092
rfingers 7.12502
rthumb -8.63319 -20.1626
lclavicle -1.27222e-014 -9.06458e-014
lhumerus 156.313 170.021 261.176
lradius 88.9284
lwrist -25.4167
lhand -28.4757 2.43662
lfingers 7.12502
lthumb -1.84536 32.4084
rfemur -30.8885 1.09083 18.2722
rtibia 65.7141
rfoot -19.2565 8.03858
rtoes -13.9491
lfemur -14.3003 3.58234 -25.2943
ltibia 61.5788
lfoot -34.4647 -6.1368
ltoes -3.8335
121
root 7.93912 16.1518 8.76711 710.751 -134.161 -2.51668
lowerback 41.8722 2.31591 -4.66975
upperback 11.6875 -2.65698 -4.27139
thorax -6.95053 -2.46558 -0.930311
lowerneck -3.75704 1.22055 -6.81497
upperneck 5.70696 1.8522 2.64754
head 2.39409 0.835141 2.10622
rclavicle -4.37326e-014 5.725e-014
rhumerus -41.5731 2.40572 -87.7818
rradius 92.7168
rwrist 8.04704
rhand -35.5116 9.39446
rfingers 7.12502
rthumb -8.63853 -20.4088
lclavicle -4.37326e-014 5.725e-014
lhumerus 156.384 170.379 261.105
lradius 89.2189
lwrist -25.511
lhand -28.4126 2.60322
lfingers 7.12502
lthumb -1.78439 32.5755
rfemur -31.4505 1.29014 18.3562
rtibia 64.4305
rfoot -18.863 7.94673
rtoes -13.6642
lfemur -13.5045 3.5992 -25.302
ltibia 61.4032
lfoot -34.8514 -5.87388
ltoes -3.83557
